HIERARCHY
ROOT ui
{
	 OFFSET 0 0 0
	 CHANNELS 3 XPosition YPosition Z Position
	 EndSite
	 {
	 OFFSET 0 -1 0
	 }
}
ROOT li
{
	 OFFSET 0 0 0
	 CHANNELS 3 XPosition YPosition Z Position
	 EndSite
	 {
	 OFFSET 0 -1 0
	 }
}
ROOT ul
{
	 OFFSET 0 0 0
	 CHANNELS 3 XPosition YPosition Z Position
	 EndSite
	 {
	 OFFSET 0 -1 0
	 }
}
ROOT ll
{
	 OFFSET 0 0 0
	 CHANNELS 3 XPosition YPosition Z Position
	 EndSite
	 {
	 OFFSET 0 -1 0
	 }
}
ROOT tt
{
	 OFFSET 0 0 0
	 CHANNELS 3 XPosition YPosition Z Position
	 EndSite
	 {
	 OFFSET 0 -1 0
	 }
}
ROOT tb
{
	 OFFSET 0 0 0
	 CHANNELS 3 XPosition YPosition Z Position
	 EndSite
	 {
	 OFFSET 0 -1 0
	 }
}
ROOT td
{
	 OFFSET 0 0 0
	 CHANNELS 3 XPosition YPosition Z Position
	 EndSite
	 {
	 OFFSET 0 -1 0
	 }
}
ROOT v
{
	 OFFSET 0 0 0
	 CHANNELS 3 XPosition YPosition Z Position
	 EndSite
	 {
	 OFFSET 0 -1 0
	 }
}
ROOT bn
{
	 OFFSET 0 0 0
	 CHANNELS 3 XPosition YPosition Z Position
	 EndSite
	 {
	 OFFSET 0 -1 0
	 }
}
MOTION
Frames: 13
Frame Time: 0.002
0.0026012489795684815	7.98533022403717E-4	0		0.49079815673828125	-2.37418115234375	0		-0.9987000732421875	-0.08636019134521485	0		-0.7193984375	-2.235428955078125	0		0.959735595703125	-0.5744952392578125	0		2.5663203125	0.10734835052490234	0		4.272400390625	-0.043263900756835935	0		5.63864892578125	0.10985332489013672	0		-0.0381718635559082	5.94593115234375	0		
0.005122854232788086	-0.014712044715881348	0		0.45943896484375	-2.37523779296875	0		-1.0179296875	-0.08353452301025391	0		-0.758724609375	-2.2343349609375	0		1.0073864135742188	-0.5796622314453125	0		2.561984619140625	0.1018494873046875	0		4.28025244140625	-0.03498663711547852	0		5.62939697265625	0.11032208251953125	0		-0.02208149528503418	5.9572392578125	0		
1.2432999908924103E-5	-0.0021178350448608396	0		0.4791485900878906	-2.370005859375	0		-1.0153211669921876	-0.09101478576660156	0		-0.7251782836914062	-2.241255126953125	0		0.958108154296875	-0.577489501953125	0		2.567793701171875	0.10820446014404297	0		4.2591845703125	-0.019315685272216797	0		5.63088720703125	0.09363059234619141	0		-0.03729368591308594	5.9479755859375	0		
-0.033383251190185544	-0.007142973899841309	0		0.45179592895507814	-2.366132080078125	0		-1.086576904296875	-0.08547637176513671	0		-0.7594979858398437	-2.2352421875	0		0.951676025390625	-0.583923828125	0		2.5966328125	0.11922513580322265	0		4.27513232421875	-1.7307700216770172E-4	0		5.62156201171875	0.09307609558105469	0		-0.02026578712463379	5.95825341796875	0		
0.01120136547088623	-0.01027347469329834	0		0.46326031494140624	-2.371818115234375	0		-1.0018592529296875	-0.07913014984130859	0		-0.7470291748046874	-2.240900390625	0		0.9374559936523438	-0.5712657470703125	0		2.566634033203125	0.1460484619140625	0		4.2790283203125	0.019118009567260744	0		5.6221962890625	0.09336439514160157	0		-0.0032627100944519045	5.97051220703125	0		
-0.025090757369995116	7.032700181007386E-4	0		0.4568985595703125	-2.36027685546875	0		-1.0762900390625	-0.07758573913574218	0		-0.7564281616210937	-2.232275634765625	0		0.9284921264648438	-0.535701171875	0		2.577188720703125	0.1452808837890625	0		4.269986328125	0.04756911087036133	0		5.61276513671875	0.0937723388671875	0		-0.018660564422607422	5.959197265625	0		
0.002380408048629761	-2.405419945716858E-4	0		0.4900936279296875	-2.375319580078125	0		-1.0008121337890625	-0.07816816711425781	0		-0.7580428466796875	-2.233787841796875	0		0.9544962768554688	-0.5686597290039063	0		2.571962646484375	0.16571109008789062	0		4.2775732421875	0.054761505126953124	0		5.613255859375	0.09401874542236328	0		-0.033126251220703125	5.94884375	0		
-0.018383201599121095	-0.011538013458251953	0		0.46245050048828124	-2.372535888671875	0		-1.0112838745117188	-0.06857579803466797	0		-0.6878599243164063	-2.2443408203125	0		1.0017918701171875	-0.5749453125	0		2.55747119140625	0.17324385070800782	0		4.2842734375	0.07594202423095703	0		5.5936640625	0.0945237045288086	0		-0.033515655517578125	5.9502646484375	0		
-9.455469846725464E-4	-0.00240169095993042	0		0.490658203125	-2.374568603515625	0		-1.0001011352539062	-0.07732206726074219	0		-0.7605112915039063	-2.23591455078125	0		0.9350933837890625	-0.5736556396484375	0		2.551888671875	0.18062416076660157	0		4.28885595703125	0.0951261978149414	0		5.5937119140625	0.07572713470458985	0		-0.01687751579284668	5.96041552734375	0		
-0.02366752815246582	0.002269287109375	0		0.46690829467773437	-2.3668984375	0		-0.9898992919921875	-0.07808717346191406	0		-0.7552882080078125	-2.23061669921875	0		1.0112598266601562	-0.5764105834960938	0		2.567182373046875	0.185682373046875	0		4.280361328125	0.11547044372558593	0		5.60315869140625	0.09177873229980468	0		6.441519856452941E-4	5.969521484375	0		
0.016368555068969726	-0.003978643894195557	0		0.49696435546875	-2.36701904296875	0		-0.9957192993164062	-0.07365801239013672	0		-0.753197265625	-2.22830712890625	0		0.9613878784179688	-0.5744139404296875	0		2.551611572265625	0.20715235900878906	0		4.278787109375	0.13669454956054689	0		5.59330126953125	0.09308126831054687	0		-0.016190393447875977	5.961080078125	0		
-0.023510648727416993	0.0028762989044189453	0		0.48397891235351564	-2.36355908203125	0		-0.9997315673828125	-0.07628660583496094	0		-0.683357666015625	-2.237990966796875	0		1.0042728881835938	-0.583759033203125	0		2.51759521484375	0.2038577880859375	0		4.28121923828125	0.1648416290283203	0		5.58923681640625	0.08628302764892579	0		-0.016004770278930665	5.961369140625	0		
-6.285520195960998E-4	-0.0011881530284881593	0		0.48182177734375	-2.366280517578125	0		-0.9997921752929687	-0.07600164031982422	0		-0.7693186645507812	-2.22649267578125	0		1.002342529296875	-0.5734940795898438	0		2.512655517578125	0.21212980651855468	0		4.28826318359375	0.1719015655517578	0		5.58430810546875	0.09548231506347657	0		-0.032063079833984376	5.95185888671875	0		
